HIERARCHY
ROOT Hips
{
	OFFSET -3.958830 18.904000 13.208200
	CHANNELS 6 Xposition Yposition Zposition Zrotation Yrotation Xrotation 
	JOINT LHipJoint
	{
		OFFSET 0.000000 0.000000 0.000000
		CHANNELS 3 Zrotation Yrotation Xrotation
		JOINT LeftUpLeg
		{
			OFFSET 1.800000 -1.400000 0.085000
			CHANNELS 3 Zrotation Yrotation Xrotation
			JOINT LeftLeg
			{
				OFFSET 2.215000 -6.000000 0.000000
				CHANNELS 3 Zrotation Yrotation Xrotation
				JOINT LeftFoot
				{
					OFFSET 2.500000 -6.900000 0.000000
					CHANNELS 3 Zrotation Yrotation Xrotation
					JOINT LeftToeBase
					{
						OFFSET 0.200000 -0.500000 1.950000
						CHANNELS 3 Zrotation Yrotation Xrotation
						End Site
						{
							OFFSET 0.000000 0.000000 0.000000
						}
					}
				}
			}
		}
	}
	JOINT RHipJoint
	{
		OFFSET 0.000000 0.000000 0.000000
		CHANNELS 3 Zrotation Yrotation Xrotation
		JOINT RightUpLeg
		{
			OFFSET -1.800000 -1.400000 0.085000
			CHANNELS 3 Zrotation Yrotation Xrotation
			JOINT RightLeg
			{
				OFFSET -2.215000 -6.000000 0.000000
				CHANNELS 3 Zrotation Yrotation Xrotation
				JOINT RightFoot
				{
					OFFSET -2.500000 -6.900000 0.000000
					CHANNELS 3 Zrotation Yrotation Xrotation
					JOINT RightToeBase
					{
						OFFSET -0.200000 -0.500000 1.950000
						CHANNELS 3 Zrotation Yrotation Xrotation
						End Site
						{
							OFFSET 0.000000 0.000000 0.000000
						}
					}
				}
			}
		}
	}
	JOINT LowerBack
	{
		OFFSET 0.000000 0.000000 0.000000
		CHANNELS 3 Zrotation Yrotation Xrotation
		JOINT Spine
		{
			OFFSET -0.087000 1.940000 -0.288900
			CHANNELS 3 Zrotation Yrotation Xrotation
			JOINT Spine1
			{
				OFFSET 0.000000 1.950000 0.060000
				CHANNELS 3 Zrotation Yrotation Xrotation
				JOINT Neck
				{
					OFFSET 0.000000 0.000000 0.000000
					CHANNELS 3 Zrotation Yrotation Xrotation
					JOINT Neck1
					{
						OFFSET 0.000000 1.600000 0.340000
						CHANNELS 3 Zrotation Yrotation Xrotation
						JOINT Head
						{
							OFFSET 0.000000 1.667000 -0.240000
							CHANNELS 3 Zrotation Yrotation Xrotation
							End Site
							{
								OFFSET 0.000000 0.000000 0.000000
							}
						}
					}
				}
				JOINT LeftShoulder
				{
					OFFSET 0.000000 0.000000 0.000000
					CHANNELS 3 Zrotation Yrotation Xrotation
					JOINT LeftArm
					{
						OFFSET 2.700000 1.550000 -0.730000
						CHANNELS 3 Zrotation Yrotation Xrotation
						JOINT LeftForeArm
						{
							OFFSET 5.450000 0.000000 0.000000
							CHANNELS 3 Zrotation Yrotation Xrotation
							JOINT LeftHand
							{
								OFFSET 3.450000 0.000000 0.000000
								CHANNELS 3 Zrotation Yrotation Xrotation
								JOINT LeftHandIndex1
								{
									OFFSET 0.750000 0.000000 0.000000
									CHANNELS 3 Zrotation Yrotation Xrotation
									End Site
									{
										OFFSET 0.000000 0.000000 0.000000
									}
								}
							}
						}
					}
				}
				JOINT RightShoulder
				{
					OFFSET 0.000000 0.000000 0.000000
					CHANNELS 3 Zrotation Yrotation Xrotation
					JOINT RightArm
					{
						OFFSET -2.700000 1.550000 -0.730000
						CHANNELS 3 Zrotation Yrotation Xrotation
						JOINT RightForeArm
						{
							OFFSET -5.450000 0.000000 0.000000
							CHANNELS 3 Zrotation Yrotation Xrotation
							JOINT RightHand
							{
								OFFSET -3.450000 0.000000 0.000000
								CHANNELS 3 Zrotation Yrotation Xrotation
								JOINT RightHandIndex1
								{
									OFFSET -0.750000 0.000000 0.000000
									CHANNELS 3 Zrotation Yrotation Xrotation
									End Site
									{
										OFFSET 0.000000 0.000000 0.000000
									}
								}
							}
						}
					}
				}
			}
		}
	}
}
MOTION
Frames: 9
Frame Time: 0.016667
-0.757940 17.710620 -0.742760 -6.868229 -29.156279 9.888863 -15.452611 12.632803 4.116477 -2.016084 -6.671138 -30.186958 -13.828142 9.464832 24.970464 -0.811406 5.831643 2.743950 0.491590 0.043590 0.323900 18.154881 -10.390331 2.318004 1.022599 -0.115417 -1.550973 4.427186 -6.802174 24.933755 -0.500609 -5.273509 2.953833 0.290900 0.677430 0.145540 -2.814473 -2.498111 -7.053497 -1.505421 3.786973 9.117342 3.459990 3.954485 5.480238 -0.723795 -7.574158 -5.100541 -13.946211 11.092181 23.355914 -5.231710 5.833860 -9.572240 -11.153772 14.105769 0.076791 -41.545162 5.591092 -2.478899 -74.119992 -59.727882 40.097025 -3.937500 3.451097 0.595370 0.460180 -0.370970 0.331000 12.574751 -6.267169 2.108954 29.426800 -7.645540 -4.959517 -149.872882 38.483158 -117.918694 1.365153 -2.159043 -0.567890 0.580440 0.066680 -0.345170 
-0.721280 17.684120 -0.781730 -5.770986 -30.597081 9.528290 -15.528350 12.278014 4.457271 -0.652298 -7.880908 -34.050620 -15.858550 11.580023 30.054710 -0.607998 7.017501 2.295183 0.561440 0.130930 0.345150 18.154637 -10.162601 2.286369 1.548807 -0.399559 -0.671511 5.005658 -6.631739 22.384066 -0.500525 -5.134841 3.000001 0.354410 0.680890 0.153270 -2.803090 -2.483371 -7.184592 -2.413509 4.013927 8.994443 2.699163 4.414701 6.339241 -0.815033 -7.933123 -5.373145 -14.557402 11.539259 22.663078 -4.602390 5.270690 -10.023780 -11.208115 12.933632 0.227750 -40.075987 4.181051 -1.768176 -73.360688 -63.547359 42.432363 -3.961913 3.473944 0.577800 0.464680 -0.369760 0.359310 12.728753 -4.779834 2.410374 25.665323 -7.098157 -4.738417 -148.802066 40.189552 -118.340009 1.361475 -2.171087 -0.551510 0.593740 0.040110 -0.332980 
-0.683670 17.643360 -0.813130 -5.183858 -32.354936 9.407064 -15.597607 11.893755 4.821704 1.609785 -8.721382 -37.970684 -18.127256 13.971426 34.545100 -0.401126 8.312758 1.822771 0.604170 0.198260 0.349400 18.164760 -9.947068 2.238509 2.101036 -0.591693 -0.015949 5.303088 -6.459873 20.704385 -0.499956 -5.060490 3.008109 0.424420 0.693700 0.134830 -2.842234 -2.399767 -7.333324 -2.531630 4.243216 8.871962 1.853194 4.960382 6.928387 -0.914020 -8.407548 -5.564027 -15.398473 12.039364 21.905305 -3.885280 4.734210 -10.302030 -11.776007 11.593468 0.312331 -38.319477 2.907747 -1.135826 -70.792590 -66.903263 43.048580 -4.000536 3.442830 0.565780 0.466500 -0.381840 0.373850 13.371437 -3.086649 2.614490 20.709795 -6.787445 -4.579126 -147.446241 42.261637 -118.366096 1.368236 -2.160211 -0.567500 0.629450 0.032370 -0.325910 
-0.657120 17.585790 -0.830280 -4.314786 -34.271023 9.128201 -15.666250 11.533711 5.174206 3.745735 -9.301166 -41.497133 -20.169246 16.301230 38.292733 -0.185233 9.486706 1.406131 0.688370 0.308750 0.386510 18.170086 -9.778789 2.138760 1.874237 -0.658991 0.536471 5.433764 -6.328463 19.507559 -0.513329 -5.028971 3.007506 0.507260 0.688720 0.137710 -2.887137 -2.290804 -7.437860 -2.813578 4.477475 8.397855 0.796700 5.455871 7.563297 -1.031504 -8.851481 -5.676520 -16.201943 12.598633 21.181024 -3.353930 4.403770 -10.796170 -12.288660 10.343047 0.351861 -35.929315 1.912776 -0.572277 -67.444110 -69.725634 42.619537 -4.034274 3.427137 0.543130 0.470460 -0.375750 0.398530 13.974485 -1.506563 2.733420 15.683003 -6.553351 -4.171656 -146.607404 44.935348 -119.854988 1.368908 -2.172796 -0.550050 0.648130 -0.000510 -0.317060 
-0.621450 17.531110 -0.839290 -3.972078 -36.119958 8.580301 -15.704924 11.250611 5.466892 6.114579 -9.359915 -44.088625 -21.756786 18.453059 41.486085 0.032573 10.506092 1.067572 0.735380 0.392270 0.389940 18.180961 -9.683338 2.070341 1.528405 -0.790286 1.486465 5.265664 -6.245778 18.783725 -0.541069 -5.051048 3.013084 0.560390 0.689710 0.124070 -2.964428 -2.138803 -7.584746 -2.053835 4.534212 8.829262 -0.674732 5.911381 7.703616 -0.903517 -9.477854 -5.798045 -17.535433 13.054695 21.109751 -3.084680 4.177200 -11.247200 -13.869935 8.649144 0.220526 -32.499596 1.148826 -0.227204 -63.048614 -71.583247 40.775088 -4.055024 3.367486 0.529730 0.467210 -0.361580 0.429060 15.097865 0.536564 2.908377 9.703099 -6.605910 -3.872193 -146.073054 47.629120 -121.489530 1.395784 -2.148441 -0.539910 0.681040 -0.028660 -0.296990 
-0.587550 17.496110 -0.835740 -3.945745 -37.797183 7.659798 -15.700157 11.127364 5.603765 7.756101 -9.103472 -45.082580 -21.781842 19.552513 43.851222 0.142401 11.084587 0.867302 0.765910 0.429780 0.406790 18.196846 -9.694116 2.046345 0.887003 -0.912826 2.685902 4.969751 -6.265268 18.525532 -0.586285 -5.120588 2.994394 0.574130 0.670830 0.125670 -3.060527 -1.986442 -7.703486 -0.817387 4.436248 9.779954 -2.529069 6.219307 7.821208 -0.525967 -9.933176 -5.960295 -18.721600 13.416221 21.830105 -2.945420 4.211060 -12.021720 -16.303816 6.278648 -0.060794 -28.097229 0.616666 -0.514436 -54.953144 -72.035429 35.248586 -4.036837 3.323221 0.551270 0.446440 -0.334190 0.436800 16.540525 2.959325 3.287106 4.446864 -6.637268 -3.691535 -146.058128 51.139148 -124.762567 1.437935 -2.100455 -0.527580 0.692570 -0.039930 -0.295790 
-0.564160 17.483560 -0.832570 -3.905793 -39.392735 6.585570 -15.652725 11.133104 5.618883 8.779359 -8.535914 -44.970185 -21.016387 19.774628 44.989415 0.198196 11.180799 0.792689 0.847310 0.541090 0.442370 18.219514 -9.798972 2.053055 -0.090731 -0.937385 3.695101 4.725170 -6.300107 18.572377 -0.657281 -5.188136 2.945469 0.604610 0.585270 0.139070 -3.185508 -1.817491 -7.788858 0.248786 4.296134 11.146001 -4.384738 6.408609 7.413314 -0.281723 -10.445211 -6.075096 -20.058052 13.917508 22.405792 -2.192370 4.162550 -13.443280 -18.757478 4.059842 -0.362838 -23.691775 0.519975 -1.147896 -45.184478 -70.041974 27.455381 -3.922275 3.363875 0.564560 0.376760 -0.261610 0.453670 18.241598 5.328518 3.619502 -0.051287 -6.205475 -3.402494 -147.541290 54.654393 -130.110207 1.514711 -2.117315 -0.455770 0.648010 -0.094830 -0.274730 
-0.549590 17.484120 -0.823000 -4.217878 -41.220585 5.919974 -15.589746 11.218246 5.557082 9.901051 -7.557510 -44.194352 -20.231487 19.551100 44.742663 0.138635 11.077659 0.803090 0.848190 0.534390 0.462380 18.243376 -9.946820 2.062923 -0.804500 -0.808092 4.060510 4.282897 -6.360176 19.515801 -0.686279 -5.246387 2.919233 0.592550 0.560140 0.127100 -3.325007 -1.655921 -7.817117 1.293833 4.149290 12.227959 -5.969699 6.507302 6.823397 -0.035102 -10.761807 -6.205460 -20.982336 14.670926 22.911630 -1.952390 4.608610 -14.393330 -20.241528 2.516339 -0.554922 -21.076135 0.494324 -1.627593 -36.831635 -66.901421 20.683005 -3.872971 3.303056 0.604850 0.342210 -0.235720 0.439390 19.041471 6.892472 3.813959 -2.399873 -5.102183 -3.188093 -150.309421 58.111071 -136.976586 1.547269 -2.091587 -0.461430 0.662680 -0.091080 -0.287400 
-0.543340 17.490300 -0.812480 -4.522268 -43.385621 6.267835 -15.536045 11.347792 5.409833 10.482920 -6.464934 -43.408965 -19.038999 18.505502 42.861926 -0.005651 10.552410 0.935138 0.896920 0.584090 0.485270 18.261718 -10.124318 2.027157 -1.364381 -0.365821 2.929216 3.654775 -6.291117 21.154052 -0.697643 -5.266428 2.882613 0.608520 0.536190 0.178050 -3.454854 -1.488092 -7.685377 1.829435 4.140415 11.510674 -7.161138 6.425172 6.618236 0.118913 -10.846597 -6.290905 -21.176863 15.747791 22.695603 -1.857630 5.482040 -14.599310 -20.278103 1.804683 -0.531514 -20.700270 0.459396 -1.974110 -29.478144 -61.813950 14.613161 -3.835539 3.316193 0.610030 0.337790 -0.199490 0.456120 18.745816 7.563178 3.766319 -2.222318 -3.065989 -2.859871 -154.488758 61.246019 -145.400886 1.522067 -2.157365 -0.419210 0.617780 -0.114260 -0.280000 
